<svg width="60" height="39" viewBox="0 0 60 39" fill="none" xmlns="http://www.w3.org/2000/svg">
<path fill-rule="evenodd" clip-rule="evenodd" d="M0 0H29.3878V1.21875H30.6122V3.65625H34.2857V8.53125H36.7347V10.9688H39.1837V19.5H41.6327V15.8438H45.3061V25.5938H47.7551V26.8125H53.8776V19.5H51.4286V15.8438H45.3061V12.1875H56.3265V15.8438H60V26.8125H57.551V30.4688H47.7551V36.5625H53.8776V34.125H56.3265V32.9062H58.7755V39H45.3061V36.5625H42.8571V32.9062H39.1837V29.25H36.7347V31.6875H34.2857V35.3438H30.6122V37.7812H29.3878V39H0V34.125H2.44898V32.9062H4.89796V6.09375H2.44898V4.875H0V0ZM25.7143 3.65625V6.09375H28.1633V32.9062H25.7143V34.125H14.6939V32.9062H13.4694V4.875H14.6939V3.65625H25.7143Z" fill="#FE6D2A"/>
</svg>
